<?xml version="1.0" encoding="UTF-8" standalone="no"?>
<!-- Generator: Adobe Illustrator 15.0.2, SVG Export Plug-In . SVG Version: 6.00 Build 0)  -->

<svg
   xmlns:dc="http://purl.org/dc/elements/1.1/"
   xmlns:cc="http://creativecommons.org/ns#"
   xmlns:rdf="http://www.w3.org/1999/02/22-rdf-syntax-ns#"
   xmlns:svg="http://www.w3.org/2000/svg"
   xmlns="http://www.w3.org/2000/svg"
   xmlns:sodipodi="http://sodipodi.sourceforge.net/DTD/sodipodi-0.dtd"
   xmlns:inkscape="http://www.inkscape.org/namespaces/inkscape"
   version="1.1"
   id="Ebene_1"
   x="0px"
   y="0px"
   width="192"
   height="192"
   viewBox="0 0 191.99999 191.99999"
   enable-background="new 0 0 1190.55 841.89"
   xml:space="preserve"
   inkscape:version="0.48.4 r9939"
   sodipodi:docname="logo_270a-linked-data.svg"><metadata
     id="metadata25"><rdf:RDF><cc:Work
         rdf:about=""><dc:format>image/svg+xml</dc:format><dc:type
           rdf:resource="http://purl.org/dc/dcmitype/StillImage" /></cc:Work></rdf:RDF></metadata><defs
     id="defs23" /><sodipodi:namedview
     pagecolor="#ffffff"
     bordercolor="#666666"
     borderopacity="1"
     objecttolerance="10"
     gridtolerance="10"
     guidetolerance="10"
     inkscape:pageopacity="0"
     inkscape:pageshadow="2"
     inkscape:window-width="1615"
     inkscape:window-height="1026"
     id="namedview21"
     showgrid="false"
     fit-margin-top="5"
     fit-margin-left="5"
     fit-margin-right="5"
     fit-margin-bottom="5"
     inkscape:zoom="2.1771449"
     inkscape:cx="145.90259"
     inkscape:cy="58.352797"
     inkscape:window-x="65"
     inkscape:window-y="24"
     inkscape:window-maximized="1"
     inkscape:current-layer="Ebene_1" /><circle
     clip-rule="evenodd"
     stroke-miterlimit="10"
     cx="604.66302"
     cy="412.82401"
     r="71.116997"
     id="circle3"
     sodipodi:cx="604.66302"
     sodipodi:cy="412.82401"
     sodipodi:rx="71.116997"
     sodipodi:ry="71.116997"
     style="fill:none;stroke:#000000;stroke-width:8;stroke-miterlimit:10"
     transform="matrix(0.89694024,0,0,0.89694024,-437.59773,-280.44463)" /><g
     id="g5"
     transform="matrix(0.89694024,0,0,0.89694024,-437.59773,-280.44463)"><path
       d="m 662.678,455.171 c 3.881,4.467 6.438,10.171 7.69,16.22 0.577,3.036 0.798,6.165 0.693,9.312 -0.106,3.151 -0.692,6.288 -1.546,9.36 -1.688,6.172 -4.995,11.92 -9.348,16.71 -2.182,2.403 -4.674,4.532 -7.352,6.395 -2.701,1.827 -5.603,3.365 -8.641,4.559 -3.051,1.158 -6.217,2.012 -9.439,2.479 -3.226,0.436 -6.494,0.574 -9.727,0.283 -6.459,-0.555 -12.787,-2.576 -18.201,-5.968 -2.697,-1.677 -5.277,-3.604 -7.446,-5.819 -2.245,-2.266 -4.19,-4.688 -5.83,-7.322 -3.189,-5.298 -5.149,-11.229 -5.324,-17.144 l 0.585,-0.133 c 2.566,11.159 10.176,20.922 20.255,26.213 5.021,2.661 10.62,4.203 16.286,4.507 5.666,0.309 11.393,-0.611 16.666,-2.686 10.613,-4.033 19.24,-12.924 23.008,-23.661 3.838,-10.709 2.781,-23.056 -2.854,-33.011 l 0.525,-0.294 z"
       id="path7"
       inkscape:connector-curvature="0" /></g><g
     id="g9"
     transform="matrix(0.89694024,0,0,0.89694024,-437.59773,-280.44463)"><path
       d="m 619.965,339.452 c 2.902,-5.157 7.414,-9.484 12.689,-12.697 2.665,-1.564 5.538,-2.824 8.537,-3.785 3.003,-0.959 6.154,-1.461 9.335,-1.691 6.38,-0.485 12.905,0.696 18.88,3.185 2.998,1.246 5.84,2.877 8.494,4.772 2.629,1.93 5.055,4.145 7.199,6.605 2.116,2.483 3.985,5.178 5.51,8.057 1.494,2.891 2.724,5.922 3.537,9.064 1.649,6.269 1.873,12.909 0.499,19.148 -0.672,3.104 -1.619,6.183 -2.976,8.969 -1.379,2.877 -3.006,5.523 -4.936,7.954 -3.916,4.785 -8.843,8.626 -14.354,10.78 l -0.321,-0.507 c 9.646,-6.168 16.279,-16.619 17.875,-27.89 0.817,-5.623 0.387,-11.415 -1.232,-16.854 -1.614,-5.44 -4.406,-10.523 -8.134,-14.793 -7.366,-8.639 -18.642,-13.773 -30.02,-13.711 -11.377,-0.014 -22.649,5.133 -30.13,13.788 l -0.452,-0.394 z"
       id="path11"
       inkscape:connector-curvature="0" /></g><g
     id="g13"
     transform="matrix(0.89694024,0,0,0.89694024,-437.59773,-280.44463)"><path
       d="m 539.243,443.929 c -5.819,0.98 -12.003,0.193 -17.804,-1.881 -2.885,-1.085 -5.666,-2.521 -8.292,-4.243 -2.628,-1.726 -4.996,-3.853 -7.172,-6.172 -1.084,-1.165 -2.104,-2.396 -3.062,-3.681 -0.944,-1.294 -1.799,-2.653 -2.591,-4.052 -0.789,-1.4 -1.512,-2.843 -2.123,-4.332 l -0.229,-0.559 -0.221,-0.571 -0.195,-0.502 -0.211,-0.591 c -0.294,-0.828 -0.533,-1.566 -0.763,-2.357 -0.911,-3.125 -1.411,-6.382 -1.565,-9.649 -0.114,-3.271 0.15,-6.551 0.77,-9.748 0.659,-3.19 1.643,-6.298 2.948,-9.251 1.331,-2.94 2.927,-5.748 4.828,-8.329 1.897,-2.58 4.03,-4.981 6.43,-7.092 2.369,-2.142 5.01,-3.979 7.824,-5.498 11.324,-6.207 25.228,-5.979 35.498,-0.186 l -0.193,0.568 c -5.407,-1.788 -11.189,-2.396 -16.827,-1.758 -5.631,0.623 -11.171,2.377 -15.955,5.416 -9.57,6.07 -16.485,16.202 -18.668,27.295 -1.12,5.538 -0.998,11.326 0.417,16.804 1.408,5.477 4.015,10.654 7.591,15.047 7.134,8.822 18.189,14.334 29.591,14.722 l -0.026,0.6 z"
       id="path15"
       inkscape:connector-curvature="0" /></g><g
     id="g17"
     transform="matrix(0.89694024,0,0,0.89694024,-437.59773,-280.44463)"><path
       d="m 510.255,429.603 c 1.421,1.677 3.035,3.123 4.779,4.357 1.718,1.261 3.557,2.324 5.47,3.199 3.825,1.75 7.884,2.885 12.007,3.372 4.106,0.555 8.268,0.557 12.328,0.017 4.057,-0.538 8.04,-1.466 11.796,-2.95 1.879,-0.731 3.703,-1.585 5.454,-2.554 1.76,-0.949 3.469,-1.981 5.09,-3.138 3.244,-2.306 6.165,-5.035 8.691,-8.096 5.139,-6.056 8.788,-13.386 10.974,-21.246 0.593,-1.952 1.091,-3.943 1.519,-5.958 0.218,-1.019 0.399,-1.996 0.588,-3.067 l 0.619,-3.347 c 0.892,-4.458 1.891,-8.908 3.244,-13.27 1.346,-4.362 2.9,-8.669 4.703,-12.888 0.907,-2.106 1.85,-4.203 2.912,-6.246 1.068,-2.04 2.206,-4.047 3.42,-6.014 2.441,-3.918 5.125,-7.729 8.302,-11.146 3.166,-3.415 6.694,-6.538 10.62,-9.081 3.955,-2.487 8.252,-4.458 12.745,-5.52 2.244,-0.528 4.514,-0.876 6.78,-1.011 2.271,-0.107 4.527,-0.014 6.742,0.237 v 0.6 c -4.369,0.011 -8.738,0.701 -12.87,2.11 -4.136,1.401 -8.016,3.511 -11.511,6.125 -7.012,5.25 -12.449,12.356 -16.695,19.987 -4.25,7.664 -7.371,15.923 -9.717,24.367 -1.171,4.226 -2.143,8.506 -2.935,12.82 -0.409,2.149 -0.704,4.33 -1.146,6.51 -0.434,2.173 -0.945,4.333 -1.562,6.463 -2.479,8.506 -6.577,16.637 -12.485,23.306 -5.87,6.684 -13.541,11.764 -21.981,14.54 -8.428,2.789 -17.585,3.391 -26.275,1.56 -4.338,-0.919 -8.563,-2.458 -12.395,-4.715 -3.818,-2.252 -7.259,-5.263 -9.708,-8.988 l 0.497,-0.335 z"
       id="path19"
       inkscape:connector-curvature="0" /></g></svg>